# xmcd
#
# Track frame offsets: 
#        150
#        19277
#        36300
#        55475
#        66807
#        80037
#        97147
#        110432
#        127440
#        138900
#        169862
#        185972
#        209777
#        235795
#        253040
#        267382
#        284567
#        302170
#        323757
#
# Disc length: 4544 seconds
#
# Revision: 2
# Processed by: cddbd v1.5.2PL0 Copyright (c) Steve Scherf et al.
# Submitted via: ExactAudioCopy v0.99pb4
#
DISCID=3911be13
DTITLE=Various Artist - The Stax Story [CD4 - Live!)
DYEAR=2000
DGENRE=R&B/Soul
TTITLE0=Booker T. and The MGs - Green Onions
TTITLE1=Eddie Floyd - Raise Your Hand
TTITLE2=Carla Thomas - Something Good (Is Going To Happen To You)
TTITLE3=The Mar-Keys - Grab This Thing (Part 1)
TTITLE4=Rufus Thomas - The Dog
TTITLE5=William Bell - You Don't Miss Your Water
TTITLE6=Sam and Dave - Soothe Me
TTITLE7=Sam and Dave - You Don't Know Like I Know
TTITLE8=Otis Redding - Shake
TTITLE9=Otis Redding - Try A Little Tenderness
TTITLE10=The Staple Singers - Oh La De Da
TTITLE11=Rufus Thomas - (Do The) Push And Pull (Part 1)
TTITLE12=Johnnie Taylor - Jody's Got Your Girl And Gone
TTITLE13=Albert King - Killing Floor
TTITLE14=Albert King - Blues Power
TTITLE15=The Emotions - Show Me How
TTITLE16=Booker T. and The MGs - Hang 'Em High
TTITLE17=Isaac Hayes - Theme From Shaft
TTITLE18=Isaac Hayes - Theme From The Men
EXTD=Label: Fantasy, Inc. - Stax Records\n4SCD-4429-2
EXTT0=
EXTT1=
EXTT2=
EXTT3=
EXTT4=
EXTT5=
EXTT6=
EXTT7=
EXTT8=
EXTT9=
EXTT10=
EXTT11=
EXTT12=
EXTT13=
EXTT14=
EXTT15=
EXTT16=
EXTT17=
EXTT18=
PLAYORDER=
